<?xml version="1.0" standalone="no"?>
<svg xmlns:xlink="http://www.w3.org/1999/xlink" id="wave" style="transform:rotate(0deg); transition: 0.3s" viewBox="0 0 1440 490" version="1.1" xmlns="http://www.w3.org/2000/svg"><defs><linearGradient id="sw-gradient-0" x1="0" x2="0" y1="1" y2="0"><stop stop-color="rgba(62, 145.499, 243, 1)" offset="0%"/><stop stop-color="rgba(11, 255, 221.107, 1)" offset="100%"/></linearGradient></defs><path style="transform:translate(0, 0px); opacity:1" fill="url(#sw-gradient-0)" d="M0,147L80,122.5C160,98,320,49,480,89.8C640,131,800,261,960,261.3C1120,261,1280,131,1440,98C1600,65,1760,131,1920,138.8C2080,147,2240,98,2400,81.7C2560,65,2720,82,2880,147C3040,212,3200,327,3360,326.7C3520,327,3680,212,3840,179.7C4000,147,4160,196,4320,179.7C4480,163,4640,82,4800,40.8C4960,0,5120,0,5280,24.5C5440,49,5600,98,5760,98C5920,98,6080,49,6240,98C6400,147,6560,294,6720,367.5C6880,441,7040,441,7200,392C7360,343,7520,245,7680,228.7C7840,212,8000,278,8160,253.2C8320,229,8480,114,8640,89.8C8800,65,8960,131,9120,196C9280,261,9440,327,9600,294C9760,261,9920,131,10080,73.5C10240,16,10400,33,10560,98C10720,163,10880,278,11040,277.7C11200,278,11360,163,11440,106.2L11520,49L11520,490L11440,490C11360,490,11200,490,11040,490C10880,490,10720,490,10560,490C10400,490,10240,490,10080,490C9920,490,9760,490,9600,490C9440,490,9280,490,9120,490C8960,490,8800,490,8640,490C8480,490,8320,490,8160,490C8000,490,7840,490,7680,490C7520,490,7360,490,7200,490C7040,490,6880,490,6720,490C6560,490,6400,490,6240,490C6080,490,5920,490,5760,490C5600,490,5440,490,5280,490C5120,490,4960,490,4800,490C4640,490,4480,490,4320,490C4160,490,4000,490,3840,490C3680,490,3520,490,3360,490C3200,490,3040,490,2880,490C2720,490,2560,490,2400,490C2240,490,2080,490,1920,490C1760,490,1600,490,1440,490C1280,490,1120,490,960,490C800,490,640,490,480,490C320,490,160,490,80,490L0,490Z"/><defs><linearGradient id="sw-gradient-1" x1="0" x2="0" y1="1" y2="0"><stop stop-color="rgba(62, 139.367, 243, 1)" offset="0%"/><stop stop-color="rgba(11, 206.228, 255, 1)" offset="100%"/></linearGradient></defs><path style="transform:translate(0, 50px); opacity:0.9" fill="url(#sw-gradient-1)" d="M0,196L80,236.8C160,278,320,359,480,334.8C640,310,800,180,960,114.3C1120,49,1280,49,1440,81.7C1600,114,1760,180,1920,236.8C2080,294,2240,343,2400,359.3C2560,376,2720,359,2880,310.3C3040,261,3200,180,3360,171.5C3520,163,3680,229,3840,253.2C4000,278,4160,261,4320,212.3C4480,163,4640,82,4800,89.8C4960,98,5120,196,5280,261.3C5440,327,5600,359,5760,334.8C5920,310,6080,229,6240,204.2C6400,180,6560,212,6720,228.7C6880,245,7040,245,7200,236.8C7360,229,7520,212,7680,204.2C7840,196,8000,196,8160,228.7C8320,261,8480,327,8640,310.3C8800,294,8960,196,9120,138.8C9280,82,9440,65,9600,106.2C9760,147,9920,245,10080,277.7C10240,310,10400,278,10560,245C10720,212,10880,180,11040,163.3C11200,147,11360,147,11440,147L11520,147L11520,490L11440,490C11360,490,11200,490,11040,490C10880,490,10720,490,10560,490C10400,490,10240,490,10080,490C9920,490,9760,490,9600,490C9440,490,9280,490,9120,490C8960,490,8800,490,8640,490C8480,490,8320,490,8160,490C8000,490,7840,490,7680,490C7520,490,7360,490,7200,490C7040,490,6880,490,6720,490C6560,490,6400,490,6240,490C6080,490,5920,490,5760,490C5600,490,5440,490,5280,490C5120,490,4960,490,4800,490C4640,490,4480,490,4320,490C4160,490,4000,490,3840,490C3680,490,3520,490,3360,490C3200,490,3040,490,2880,490C2720,490,2560,490,2400,490C2240,490,2080,490,1920,490C1760,490,1600,490,1440,490C1280,490,1120,490,960,490C800,490,640,490,480,490C320,490,160,490,80,490L0,490Z"/></svg>